<?xml version="1.0" encoding="UTF-8"?>
<svg id="logo_original_vector" data-name="logo original vector" xmlns="http://www.w3.org/2000/svg" viewBox="0 0 645.9 237.51">
  <defs>
    <style>
      .cls-1 {
        fill: #ef3c2b;
        stroke-width: 2.58px;
      }

      .cls-1, .cls-2 {
        stroke: #ef3c2c;
      }

      .cls-1, .cls-2, .cls-3, .cls-4, .cls-5, .cls-6, .cls-7, .cls-8, .cls-9, .cls-10, .cls-11, .cls-12, .cls-13, .cls-14, .cls-15, .cls-16 {
        stroke-linejoin: round;
      }

      .cls-1, .cls-2, .cls-3, .cls-4, .cls-5, .cls-6, .cls-9, .cls-10, .cls-11, .cls-12, .cls-13, .cls-14, .cls-15, .cls-16 {
        stroke-linecap: round;
      }

      .cls-2, .cls-3, .cls-4, .cls-5, .cls-6, .cls-7, .cls-8, .cls-17, .cls-9, .cls-10, .cls-11, .cls-12, .cls-13, .cls-14, .cls-15, .cls-16 {
        fill: none;
      }

      .cls-2, .cls-6 {
        stroke-width: 6.45px;
      }

      .cls-3 {
        stroke-width: 6.38px;
      }

      .cls-3, .cls-4, .cls-5, .cls-6 {
        stroke: #ef3c2b;
      }

      .cls-4 {
        stroke-width: 6.38px;
      }

      .cls-5 {
        stroke-width: 6.45px;
      }

      .cls-7, .cls-8, .cls-17, .cls-9, .cls-10, .cls-11, .cls-12, .cls-13, .cls-14, .cls-15, .cls-16 {
        stroke: #5d5e5f;
      }

      .cls-7, .cls-17, .cls-11 {
        stroke-width: 11.6px;
      }

      .cls-8, .cls-12 {
        stroke-width: 11.62px;
      }

      .cls-18 {
        fill: #fff;
      }

      .cls-17 {
        stroke-miterlimit: 10;
      }

      .cls-9 {
        stroke-width: 11.69px;
      }

      .cls-10 {
        stroke-width: 11.58px;
      }

      .cls-13 {
        stroke-width: 11.63px;
      }

      .cls-14 {
        stroke-width: 11.78px;
      }

      .cls-15 {
        stroke-width: 11.82px;
      }

      .cls-16 {
        stroke-width: 11.67px;
      }

      .cls-19 {
        fill: #ef3c2c;
      }
    </style>
  </defs>
  <g id="campus">
    <g id="de_la_transition" data-name="de la transition">
      <g>
        <g id="cercle">
          <path class="cls-19" d="M146.79,193.9s-.03-.02-.01.03c.01,0,.02-.01.03-.02,0,0-.02,0-.02,0Z"/>
          <path class="cls-19" d="M148.3,233.7c-.22.04-.39.12-.53.2.25-.02.45-.07.53-.2Z"/>
          <path class="cls-19" d="M133.92,236.64c.11.16.5.05.68.03-.3-.12-.44-.28-.68-.03Z"/>
          <path class="cls-19" d="M147.1,194.14l-.31-.21v.03s.03.04.05.06c.09.04.18.08.27.12Z"/>
          <path class="cls-19" d="M146.9,193.88s-.06.02-.08.04c.08.04.28.19.08-.04Z"/>
          <polygon class="cls-19" points="146.78 193.93 146.78 193.93 146.78 193.93 146.78 193.93"/>
          <path class="cls-19" d="M131.65,190.96c-.19.07-.02.22-.03.27.27-.18,0-.32.03-.27Z"/>
          <polygon class="cls-19" points="134.59 189.43 134.55 189.52 135 189.24 134.59 189.43"/>
          <path class="cls-19" d="M137.7,189.25c-.28-.37-1.14,0-1.69-.07l-.1-.08-.22.3c.33-.04.71-.12,1.07-.18.36-.03.71-.04.94.02Z"/>
          <path class="cls-19" d="M138.84,190.14s.04.03.06.05c.06.01.15.03.3.07-.07-.16.36-.05-.35-.12Z"/>
          <path class="cls-19" d="M138.89,190.19c-.3-.05.18.16,0,0h0Z"/>
          <path class="cls-19" d="M140.14,190.72c.42.05.37-.05.18-.25h-.43c.06.11.4.23.26.25Z"/>
          <path class="cls-19" d="M140.78,190.33h-.23s.08.06.23,0Z"/>
          <path class="cls-19" d="M140.34,190.3c.07-.09-.05-.02-.26,0l.48.03c-.04-.07-.01-.19-.22-.02Z"/>
          <path class="cls-19" d="M139.84,190.16c-.21-.14-.5-.24-.05-.28-.81-.12-.74.15.05.28Z"/>
          <path class="cls-19" d="M137.89,188.89s-.33-.12-.33-.12l-.3.11c.15-.05.64.12.63.02Z"/>
          <path class="cls-19" d="M142.67,191.62c.06-.06-.03-.25-.02-.35l-.33-.05c.12.12.38.28.35.4Z"/>
          <path class="cls-19" d="M142.65,191.27l.48.1c-.37-.22-.47-.19-.48-.1Z"/>
          <path class="cls-19" d="M141.13,190.03l-.14-.05-.84.04s.98,0,.98.01Z"/>
          <polygon class="cls-19" points="143.9 192.52 144.44 192.55 144.22 192.51 143.9 192.52"/>
          <path class="cls-19" d="M144.03,192.18l-.05-.29c-.05-.03-.11-.07-.16-.1,0,.06,0,.2.21.39Z"/>
          <path class="cls-19" d="M144.32,192.12s-.14-.1-.34-.23h0c.17.12.29.2.34.23Z"/>
          <path class="cls-19" d="M142.55,190.35c-.25.05,0,.28-.46.27.3,0,.91.14.46-.27Z"/>
          <path class="cls-19" d="M143.16,191.29l.56.13-.43-.29c-.02.05.02.17-.13.16Z"/>
          <polygon class="cls-19" points="143.87 191.52 143.97 191.48 143.71 191.42 143.87 191.52"/>
          <path class="cls-19" d="M145.8,193.2c.23.06.43.2.66.36-.21-.21-.44-.42-.67-.6-.08.03-.25.05,0,.24Z"/>
          <path class="cls-19" d="M144.94,192.52l.05.02s-.03-.05-.05-.02Z"/>
          <path class="cls-19" d="M145.77,192.9c-.16-.16-.3-.19-.44-.21.15.08.3.16.46.27.03-.01.05-.03-.02-.06Z"/>
          <path class="cls-19" d="M145.02,192.63h-.03c.03.07.04.04.03,0Z"/>
          <path class="cls-19" d="M145.02,192.63c.11.04.21.04.31.06-.12-.06-.23-.12-.34-.15.02.03.03.06.03.09Z"/>
          <path class="cls-19" d="M143.25,190.16s.01.04,0,.06c.07,0,.11,0,0-.06Z"/>
          <path class="cls-19" d="M143.09,190.43h.08c.33.27.66.76.58.75-.01-.23-.04-.4-.19-.7-.08,0-.18.04-.38-.1-.16-.15.05-.09.07-.16-.16,0-.53-.07-.16.21Z"/>
          <path class="cls-19" d="M145.9,192.06l-.05.11c-.38-.31-.37-.14-.47-.1l.76.4-.25-.4Z"/>
          <path class="cls-19" d="M129.86,235.85c-.06,0-.15.01-.27-.02,0,0,.27.02.27.02Z"/>
          <path class="cls-19" d="M131.74,236.32l.07-.08c-.1.03-.14.06-.07.08Z"/>
          <path class="cls-19" d="M146.44,234.8c.12,0,.29,0,.52-.05l-.52.05Z"/>
          <path class="cls-19" d="M120.36,231.24s-.4,0-.39-.01c.4.3.29.08.39.01Z"/>
          <path class="cls-19" d="M119.67,197.1s.05-.04.07-.05c-.02-.02-.04,0-.07.05Z"/>
          <path class="cls-19" d="M112.65,215.7s.01-.03.02-.05c-.11-.25-.09-.14-.02.05Z"/>
          <polygon class="cls-19" points="157.64 226.61 157.65 226.58 157.62 226.61 157.64 226.61"/>
          <path class="cls-19" d="M156.94,226.49l.29.95c.02-.48.2-.6.39-.83,0,0-.17-.03-.34-.05-.17-.03-.34-.06-.34-.06Z"/>
          <path class="cls-19" d="M148.95,211.18s.05-.03.07-.05c-.36-.3-.71-.6-1.08-.91.34.32.67.64,1,.96Z"/>
          <path class="cls-19" d="M144.34,206.67c1.09,1.28,2.32,2.43,3.6,3.55-1.21-1.15-2.43-2.32-3.6-3.55Z"/>
          <path class="cls-19" d="M144.43,211.3c-.06,0-.11.01-.16.02.05.04.09.08.14.12.05,0,.1,0,.16-.02-.04-.05-.09-.09-.13-.13Z"/>
          <path class="cls-19" d="M142.73,213.97c-1.08.07-2.19.16-3.36.18-1.65-.02-3.48.14-5.1.26,1.92-.06,3.88-.09,5.86-.23.87-.04,1.8-.08,2.95-.13.86-.06,1.72-.09,2.58-.09.01,0,.02-.02.02-.03-.08-.07-.16-.15-.24-.23-.9.05-1.8.15-2.7.26Z"/>
          <path class="cls-19" d="M142.88,211.52c-.66.09-1.32.16-1.99.2.7-.01,1.38-.06,2.07-.13-.02-.02-.05-.04-.08-.06Z"/>
          <path class="cls-19" d="M140.89,211.71c-.87.03-1.75.06-2.7.1-.91,0-1.82-.03-2.73-.06.89.07,1.79.1,2.7.11.9-.02,1.81-.08,2.72-.14Z"/>
          <path class="cls-19" d="M142.8,210.94c-.34-.31-.67-.62-1.01-.94-.56-.51-1.12-1.02-1.72-1.47-.31-.22-.62-.44-1.01-.72-.34-.24-.69-.47-1.06-.68.05.13-.08.16-.15.2.33.27.65.52.96.78.33.25.66.5.98.75.59.44,1.17.9,1.74,1.38.3.25.59.51.89.77.12-.02.24-.04.37-.06Z"/>
          <path class="cls-19" d="M143.11,211.57c.12-.01.24-.03.36-.04-.03-.03-.06-.06-.09-.09-.12.02-.24.03-.35.05.03.03.05.05.08.07Z"/>
          <path class="cls-19" d="M141.2,224.29c.93-.93,1.94-1.81,3.03-2.65-1.12.77-2.13,1.66-3.03,2.65Z"/>
          <path class="cls-19" d="M143.84,210.73c-.85-.74-1.81-1.42-2.64-2.06.79.7,1.61,1.39,2.43,2.1.07-.02.14-.03.21-.04Z"/>
          <path class="cls-19" d="M113.04,221.39c.02.06.04.11.05.14"/>
          <path class="cls-19" d="M146.96,234.64c-.06-.02-.09-.06-.12-.1-.05.06-.04.1.12.1Z"/>
          <path class="cls-19" d="M120.43,231.24l-.02-.02s-.04,0-.05.02h.07Z"/>
          <path class="cls-19" d="M160.41,211.43c0,.18-.01.28-.04.35.06,0,.09-.09.04-.35Z"/>
          <path class="cls-19" d="M148.47,193.65c-.07-.03-.12-.11-.2-.13l-.06.1c.25.21.47.3.26.03Z"/>
          <polygon class="cls-19" points="151.99 197.34 151.67 196.85 151.74 197.02 151.99 197.34"/>
          <path class="cls-19" d="M160.62,220.39c-.07-.21-.29.54-.34.33-.01.49-.15.72.24.6.35-.75-.25-.27.1-.93Z"/>
          <path class="cls-19" d="M160.28,220.72c0-.08,0-.16,0-.25,0,.14,0,.21,0,.25Z"/>
          <path class="cls-19" d="M135.97,237.41l.04-.08c-.08-.09-.2-.1-.43-.12l.39.2Z"/>
          <polygon class="cls-19" points="129.15 235.97 129.26 236.01 129.14 235.65 129.15 235.97"/>
          <path class="cls-19" d="M123.64,233.98c.2.13.48.21.68.35-.48-.21-.56-.7-.68-.35Z"/>
          <path class="cls-19" d="M161.39,217.54c-.33.04-.33-1.25-.61-1.2,0,0,.08.43.17.87.05.22.06.44.07.6.01.17.02.27.02.27-.17.02-.38-.26-.51-.66-.19-.41-.32-.94-.28-1.48.14-.28.6.21.72.19-.12-.15-.22-1.06-.13-1.16l.18.47c.16-.64-.48-.98-.26-1.75-.01-.25.34-.82.13-.84-.19.28-.66.46-1.09.53,0-.27-.02-.54-.04-.81h.02l-.02-.16h0c-.02-.26-.03-.53-.06-.79.27.11.59.4.7.15-.1,0-.27-.2-.33-.28.01-.28.31.04.12-.51-.36-.01-.27-1.14-.35-.19-.24-.52-.08-.6-.27-1.23-.04.06-.11.07-.19.05-.34-1.6-.87-3.13-1.54-4.58,0-.02.02-.04.03-.08-.02,0-.05,0-.07-.01-.19-.41-.39-.81-.6-1.21.02,0,0-.09-.14-.31,0,0-.02-.01-.03-.02-1.5-2.65-3.54-4.96-5.97-6.82h.24s-.18-.27-.18-.27l-.09.24c-.66-.5-1.36-.97-2.08-1.41-.16-.29-.35-.61-.05-.49.57.41.36.45.53.77-.03-.38.89.38,1.04.02,0,0-.53-.35-.53-.35.03-.05.26.05.17-.11-.18.11-.73-.2-.96-.71-.37-.19-.57.2-.62.64-.36-.21-.72-.42-1.09-.61-.13-.11-.28-.23-.51-.41.26-.06.72.2.63-.18-.5-.39-.45-.15-.81-.31.81.6-.29-.09.19.47-.17-.1-.32-.2-.46-.29.13.13.24.26.34.4v-.03s-.01,0-.01,0h0c-.01-.05-.01-.07.01-.03,0,0,.02,0,.02,0,.02-.02.06-.03.08-.04.19.22,0,.07-.08.04-.01,0-.02,0-.03.02h0s.31.21.31.21c-.09-.04-.18-.08-.27-.12-.01-.02-.02-.04-.04-.06,0,.01.01.03.02.05-.45-.21-.9-.42-1.36-.61-.07-.08-.15-.15-.22-.24-.1,0-.1.07-.09.13-2.63-1.01-5.5-1.58-8.5-1.58-1.9,0-3.74.24-5.5.66-.13-.16-.22-.31-.2-.43-.35.22-.78.07-1.3-.05-.52-.12-1.11-.05-1.58.34-.27-.05.17-.2.01-.28-.24.24-.54.38-1.16.53l.05-.07c-.84.31-1.4.58-2.01.84-.63.23-1.21.58-2.07,1.09l.26.11c-.37.21-.47.23-.66.3-.07.3.16.11.39-.08.25-.17.51-.33.45-.04-.78-.09-2.24,1.87-2.86,1.76-.46.46.33.06-.12.51l-.23.02.03.25c-.3.29-.58.32-.68.25.08-.07.17-.24.23-.34-.49.3-.97,1.21-1.13,1.31l.48-.41c-1.02,1.41-2.42,3.05-2.99,4.66l.16-.05c-.47,1.19-.62.82-1.18,2.11v-.05c-.04.3-.14.66-.31,1,.03-.38-.51.5-.45.02-.36,1.36-.12.7-.06,1.71l-.25.13c.06.35.1.39-.04,1.07,0-.6-.4.35-.42-.34-.85,1.32-.13,2.23-.87,2.77.38.76.54-1.2.57-.8.23-.27.27.63.13,1.06-.07.46-.9.65-.93,1.88,0-.12-.03-.13-.02-.25-.16.45.13.9-.12,1.45.3.31-.07.72.35.8-.03,0-.05-1.09-.04-1.09.03.31.16.61.24.96.12.34.22.73.15,1.24-.09-.07-.22-.37-.3-.57-.09.31.13.57.04.88-.38-.05-.27-1.32-.5-1.99-.23.33.33,1.27-.13.95.59.46.03,1.21.53,1.98l-.24-.02c.04.13.19.37.25.61,0,0-.41-.37-.4-.38.4.61.06,1.32.35,1.92-.32-1.32.21-.36.25-.96.69,1.45-.4,1.15.25,2.69-.09-.29-.11-.74.1-.46.08.35.16.82.12,1.07.5,1.14.16-.27.49.16-.12.51.31.52.66.94l-.22.11c.52,1.3.62.08,1.05,1.26l-.55-.29.39.53-.3.02c.5.54.64.7.96,1.32.05-.23.42-.18.77.31.12.42-.32-.05.21.63-.23-.06-.51-.13-.55-.57-.09.02-.24-.07-.32-.05.14.46.62.97.85,1.19-.07-.1-.16-.22-.18-.29l1.1.72c.06.21-.1.14-.25.07.19.17.39.23.66.49-.21.06-.34.22-.77-.12l.97.75c0,.12.29.58.13.54.44.53,1.47.84,2.07,1.5.06,0,.16.02.33.11.65.5,1.08,1.2,2.08,1.47l.3.59c.71.32-.42-.77.75-.24.83.36.14.44.37.69.47.1,1.35.05,1.97.67-.28-.05-.45-.19-.7-.27l.49.45c-.83-.03-1.3-.37-.87.13.37-.58,2.31,1,2.67.32l.35.28c-.11-.05-.14-.02-.26-.06.66.58.74-.27,1.68.16.33.17.55.3.29.33l.83.03c.23.07.14.17-.08.1l1.21.24v.02c.09-.04.27-.07.44-.11.08.01.17.02.26.04,0,0,0,.02,0,.03h.11c.2.03.41.05.61.08-.1.1-.5.13-.83.07.52.77.59-.09,1.9.49h-.65c.37.43.89.41,1.62.68-.18-.1-1.42-.77-.66-.84.2.09.48.13.89,0-.01.24.39.2.88.2l-.04.32c.54-.08.5-.24.81-.38.59.06.72.27.87.48.95-.01-.67-.36.45-.49.79.05,1.35-.06,2.24-.4.55.02-.07.21.14.27l.44-.34c.12-.01.09.07.08.12.39-.17-.02-.33.6-.52h0c.14-.04.29-.08.43-.11.12.01.25.03.39.05.42.03.92,0,1.24-.29.21.03-.04.21.05.32.98-.56.87-.39,1.59-1.04l.78-.06c-.26-.01-.3-.12-.22-.27.21-.09.41-.19.6-.28-.03.11-.04.22.02.3.05-.06.15-.13.27-.2-.04.07-.06.13-.02.15.04.02.11-.08.23-.21l.35.25v-.15s.31-.08.63-.18c.32-.09.64-.19.64-.19.34-.38.63-.76.97-1.16.26-.35.57-.71.97-1.07.1-.07.2-.14.3-.22-.11.36.19.37.34.63-.52-.07-.89.74-1.59,1.07.37-.16.36,0,.3.1l1.01-.99c.11.23.35,0,.72-.1-.26-.14-.08-.33.19-.57.26-.26.62-.54.79-.77.13.11.14.33-.43.72.83-.17.4-1.07,1.17-1.27-.12.11-.21.14-.21.25.22-.33.98-.89.92-.64l-.12.12c.42-.37,1.02-.96,1.49-1.51.42-.6.7-1.15.58-1.35.05.02.32.44.34.54,0,0,.02-.6.04-1.21.01-.29,0-.59-.03-.82-.02-.22-.04-.37-.04-.37.22.35,1.31.26,1,1.16.18-.2.41-.45.59-1-.14.13-.69.1-.59-.12.7-.36.44-.28,1.17-.83-.19.21-.56-.33-.38-.7.05.1.53.22.52.39l-.08-1.21c-.01.28.42.24.67.08-.16.05.42-.84.4-1.15,0,0-.25.4-.26.39.44-1.14-.42-1.38-.07-2.47.07.15.62.51.83-.07-.17-.25-.71-.9-1.04-1.59.08-.4.13-.8.19-1.2.41.64.84,1.57,1,2.2.2-.43.22-.09.3-.78.19-.22.18.4.16.61l.34-1.6ZM133.92,236.64c.24-.25.38-.09.68.03-.19.03-.57.13-.68-.03ZM147.76,233.9c.14-.09.32-.17.53-.2-.09.13-.29.19-.53.2ZM149.81,212c.37.35.73.69,1.09,1.05-.02.02-.04.04-.06.05.09.07.17.14.23.22.17.18.21.41.24.62.02.22,0,.41-.12.61-.54.82-1.95,2.01-2.97,3.73-.85,1.3-1.76,2.39-2.86,3.28-1.54,1.19-2.84,2.66-4.24,3.78-.49.44-.88,1.51-1.29,1.62-.24.11-.43,0-.62-.15.6-.88,1.26-1.73,1.98-2.52-.75.76-1.46,1.55-2.13,2.39-.15-.14-.31-.29-.52-.34,0,0-.18.29-.27.43-.78.32-1.32-.16-1.57-.73-.04-.13-.09-.28-.12-.45.07-.07.13-.14.19-.2,1.14-1.24,2.08-2.58,3.41-3.75.97-.78,1.86-1.83,2.67-2.69-2.07,1.91-4.17,4.11-6.34,6.28-.04-.38,0-.8.24-1.15.66-.79,1.33-1.53,1.99-2.23.08.07.23.2.31.26,1.54-2.25,3.87-3.34,5.09-5.54-.1.03-.13-.06-.16-.12-1.49,1.89-3.25,3.43-5.16,5.32,1.43-1.51,2.81-2.88,4.05-4.27l.91-1.05c.28-.34.53-.66.81-1.04.24-.33.49-.68.76-1.04-.2.09-.4.17-.64.21-.69.07-1.32.14-1.92.2-.66.04-1.28.08-1.88.11-.01-.09-.04-.28-.05-.37-1.74.34-3.44.34-5.13.34-1.7.02-3.35.02-5.06.34.13.04.06.12.04.18,1.69-.13,3.31-.2,4.98-.28,1.66-.06,3.32-.1,5.07-.21-1.35.1-2.69.2-4,.26-1.31.08-2.61.16-3.92.24-2.66.14-5.03.37-7.8.62-.24.02-.71.05-.95.07-.96-.18-1.96-.28-2.94-.26.24-.47-.69-1.38,1.18-1.22,0-.09-.01-.28-.02-.37-1.89-.43-2.4-1.71-.72-2.12,1.85-.34,4.53-.33,7.17-.69,1.91-.24,3.68-.38,5.54-.31,1.25.06,2.56.02,3.86,0,1.28-.07,2.57-.13,3.82-.07.09,0,.18-.01.28-.02-.95-.76-1.9-1.49-2.87-2.2-2.13-1.62-3.89-3.28-5.68-5.14-.15-.16-.45-.48-.6-.64-.32-.92-.79-1.62-1.42-2.42.64-.22,1.08-1.63,1.99-.14.1-.08.28-.24.38-.33-.31-.83-.21-1.73.34-1.97.11-.1.23-.18.36-.23.14-.03.27-.08.35-.19.2-.14.47-.1.79.09,1.42.95,2.79,3.1,4.55,4.4.65.51,1.29,1.01,1.84,1.44.29.23.57.46.87.71.33.28.65.57.95.88,1.62,1.73,3.67,3.2,5.17,5.05.58.62,1.96,1.26,2.05,1.82.12.33-.04.55-.26.75-.44-.38-.88-.75-1.31-1.12.03.07.04.15.04.23Z"/>
        </g>
        <path id="fleche" class="cls-18" d="M151.35,212.14c-.09-.56-1.47-1.19-2.05-1.82-1.49-1.84-3.54-3.32-5.17-5.05-.3-.31-.62-.6-.95-.88-.31-.25-.59-.47-.87-.71-.56-.43-1.19-.93-1.84-1.44-1.76-1.3-3.12-3.46-4.55-4.4-.32-.2-.59-.23-.79-.09-.08.1-.21.15-.35.19-.13.05-.25.13-.36.23-.55.24-.64,1.15-.34,1.97-.1.08-.28.25-.38.33-.91-1.49-1.35-.08-1.99.14.62.8,1.09,1.5,1.42,2.42.15.16.45.48.6.64,1.79,1.86,3.55,3.52,5.68,5.14.97.71,1.92,1.44,2.87,2.2-.1.01-.19.02-.28.02-1.25-.06-2.54,0-3.82.07-1.3.02-2.61.06-3.86,0-1.85-.07-3.63.07-5.54.31-2.63.36-5.31.35-7.17.69-1.69.4-1.17,1.68.72,2.12,0,.09.01.28.02.37-1.88-.15-.95.76-1.18,1.22.98-.02,1.98.08,2.94.26.24-.02.71-.05.95-.07,2.77-.26,5.14-.49,7.8-.62,1.31-.08,2.61-.16,3.92-.24,1.31-.06,2.64-.16,4-.26-1.75.11-3.41.15-5.07.21-1.67.08-3.29.15-4.98.28.02-.06.09-.14-.04-.18,1.71-.32,3.37-.32,5.06-.34,1.68,0,3.38,0,5.13-.34.01.09.04.27.05.37.6-.04,1.22-.07,1.88-.11.6-.06,1.24-.12,1.92-.2.24-.04.44-.12.64-.21-.27.36-.52.71-.76,1.04-.28.38-.53.71-.81,1.04l-.91,1.05c-1.24,1.39-2.62,2.76-4.05,4.27,1.9-1.89,3.67-3.43,5.16-5.32.04.06.07.15.16.12-1.22,2.21-3.55,3.29-5.09,5.54-.08-.07-.23-.2-.31-.26-.66.7-1.33,1.44-1.99,2.23-.25.35-.28.77-.24,1.15,2.17-2.17,4.27-4.36,6.34-6.28-.81.86-1.69,1.92-2.67,2.69-1.33,1.18-2.27,2.51-3.41,3.75-.06.06-.13.13-.19.2.04.16.08.31.12.45.25.58.79,1.05,1.57.73.08-.15.27-.43.27-.43.2.05.36.2.52.34.66-.84,1.37-1.63,2.13-2.39.9-.99,1.91-1.88,3.03-2.65-1.08.85-2.1,1.72-3.03,2.65-.72.79-1.38,1.64-1.98,2.52.18.16.37.26.62.15.41-.1.8-1.17,1.29-1.62,1.4-1.12,2.7-2.59,4.24-3.78,1.1-.88,2.01-1.98,2.86-3.28,1.02-1.72,2.43-2.91,2.97-3.73.12-.21.14-.4.12-.61-.03-.21-.08-.45-.24-.62-.06-.08-.14-.16-.23-.22.02-.01.04-.04.06-.05-.36-.36-.73-.7-1.09-1.05,0-.08,0-.16-.04-.23.43.37.87.74,1.31,1.12.22-.2.38-.42.26-.75ZM143.84,210.73c-.07.01-.14.03-.21.04-.81-.71-1.64-1.4-2.43-2.1.84.64,1.79,1.32,2.64,2.06ZM143.47,211.54c-.12.01-.24.03-.36.04-.03-.03-.06-.05-.08-.07.12-.02.24-.03.35-.05.03.03.06.06.09.09ZM141.55,210.23c-.57-.47-1.15-.93-1.74-1.38-.33-.25-.65-.49-.98-.75-.31-.25-.63-.51-.96-.78.07-.05.19-.08.15-.2.36.21.72.44,1.06.68.39.28.7.5,1.01.72.6.46,1.16.96,1.72,1.47.34.31.67.62,1.01.94-.12.02-.25.04-.37.06-.3-.25-.59-.52-.89-.77ZM138.19,211.81c.95-.04,1.83-.07,2.7-.1.67-.03,1.33-.11,1.99-.2.03.02.05.04.08.06-.68.07-1.37.12-2.07.13-.91.07-1.82.12-2.72.14-.91,0-1.81-.04-2.7-.11.91.03,1.82.05,2.73.06ZM145.66,213.97c-.86,0-1.72.03-2.58.09-1.15.05-2.08.09-2.95.13-1.98.15-3.93.18-5.86.23,1.62-.12,3.45-.28,5.1-.26,1.17-.02,2.28-.11,3.36-.18.91-.12,1.8-.21,2.7-.26.08.07.16.15.24.23,0,0-.01.02-.02.03ZM144.27,211.32c.05,0,.11-.02.16-.02.04.04.09.08.13.13-.05,0-.1.01-.16.02-.04-.04-.09-.08-.14-.12ZM148.95,211.18c-.34-.32-.67-.64-1-.96-1.29-1.12-2.52-2.27-3.6-3.55,1.17,1.23,2.39,2.39,3.6,3.55.37.31.72.61,1.08.91-.02.02-.05.03-.07.05Z"/>
      </g>
      <g>
        <path class="cls-5" d="M296.66,198.35s-6.21-.54-7.49,5.41"/>
        <path class="cls-5" d="M296.66,198.35s7.23-.62,7.69,6.94"/>
        <line class="cls-4" x1="304.35" y1="223.01" x2="304.35" y2="205.08"/>
        <line class="cls-3" x1="304.35" y1="233.43" x2="304.35" y2="223.62"/>
        <path class="cls-5" d="M296.75,233.54s-8.1.74-8.1-10.19,8.1-10.19,8.1-10.19"/>
        <path class="cls-5" d="M296.32,213.16s7.27-.66,8.04,8.56"/>
        <path class="cls-5" d="M296.32,233.54s7.26.66,8.04-8.53"/>
      </g>
      <g>
        <path class="cls-5" d="M426.39,198.29s-6.21-.54-7.49,5.41"/>
        <path class="cls-5" d="M426.39,198.29s7.23-.62,7.69,6.94"/>
        <line class="cls-4" x1="434.08" y1="222.95" x2="434.08" y2="205.02"/>
        <line class="cls-3" x1="434.08" y1="233.37" x2="434.08" y2="223.56"/>
        <path class="cls-5" d="M426.48,233.48s-8.1.74-8.1-10.19,8.1-10.19,8.1-10.19"/>
        <path class="cls-5" d="M426.05,213.1s7.27-.66,8.04,8.56"/>
        <path class="cls-5" d="M426.05,233.48s7.26.66,8.04-8.53"/>
      </g>
      <path class="cls-6" d="M506.09,203.47s-3.62-6.25-10-5.42c0,0-7.4.33-7.06,8.23,0,0,.25,4.69,7.82,8.31,0,0,12.69,5.76,7.31,14.49,0,0-2.35,4.59-8.99,4.56,0,0-4.79.05-7.9-5.87"/>
      <g>
        <path class="cls-6" d="M194.33,206.91s-1-9-8.46-8.82"/>
        <path class="cls-6" d="M194.33,224.78s-1,9-8.46,8.82"/>
        <line class="cls-6" x1="194.37" y1="183.26" x2="194.37" y2="233.6"/>
        <path class="cls-6" d="M185.87,198.1c-7.46-.19-8.46,8.82-8.46,8.82v17.87s1,9,8.46,8.82"/>
      </g>
      <g>
        <path class="cls-6" d="M601.43,198.1c-7.46-.19-8.46,8.82-8.46,8.82v17.87s1,9,8.46,8.82"/>
        <path class="cls-6" d="M601.43,198.1c7.46-.19,8.45,8.82,8.45,8.82v17.87s-1,9-8.45,8.82"/>
      </g>
      <g>
        <path class="cls-6" d="M229.22,225.28c-.36,1.95-2.03,8.47-8.37,8.31"/>
        <path class="cls-6" d="M220.85,198.1c-7.46-.19-8.46,8.82-8.46,8.82v17.86s1,9,8.46,8.82"/>
        <path class="cls-6" d="M212.39,215.03c.4.18,16.91,0,16.91,0,0,0,.33-4.44,0-8.24,0,0-1-8.88-8.46-8.69"/>
      </g>
      <line class="cls-6" x1="269.35" y1="183.26" x2="269.35" y2="233.6"/>
      <g>
        <line class="cls-2" x1="344.73" y1="177.75" x2="369.65" y2="177.75"/>
        <line class="cls-2" x1="344.73" y1="177.67" x2="369.65" y2="177.67"/>
        <line class="cls-6" x1="357.55" y1="233.72" x2="357.55" y2="177.75"/>
        <line class="cls-6" x1="357.55" y1="233.63" x2="357.55" y2="177.67"/>
      </g>
      <g>
        <path class="cls-6" d="M401.12,198.97s-11.93,1.21-11.93,8.94"/>
        <line class="cls-6" x1="389.19" y1="198.1" x2="389.19" y2="233.55"/>
      </g>
      <g>
        <path class="cls-6" d="M626.65,206.44c0-7.17,8.01-7.58,8.01-7.58,0,0,6.54-.03,8.01,5.55"/>
        <line class="cls-6" x1="626.62" y1="233.52" x2="626.62" y2="198"/>
        <line class="cls-6" x1="642.65" y1="205.02" x2="642.65" y2="233.52"/>
      </g>
      <line class="cls-6" x1="455.52" y1="233.52" x2="455.52" y2="198"/>
      <g>
        <path class="cls-6" d="M455.52,206.36c0-7.17,8.01-7.58,8.01-7.58,0,0,6.54-.03,8.01,5.55"/>
        <line class="cls-6" x1="471.55" y1="204.98" x2="471.55" y2="233.52"/>
      </g>
      <g>
        <line class="cls-6" x1="522.4" y1="198.1" x2="522.4" y2="233.59"/>
        <path class="cls-1" d="M525.09,183.26c0,1.49-1.21,2.69-2.7,2.69s-2.69-1.2-2.69-2.69,1.21-2.69,2.69-2.69,2.7,1.2,2.7,2.69Z"/>
      </g>
      <g>
        <line class="cls-6" x1="573.88" y1="198.1" x2="573.88" y2="233.59"/>
        <path class="cls-1" d="M576.58,183.26c0,1.49-1.21,2.69-2.69,2.69s-2.69-1.2-2.69-2.69,1.21-2.69,2.69-2.69,2.69,1.2,2.69,2.69Z"/>
      </g>
      <g>
        <path class="cls-6" d="M547.62,188.93v38.06s.27,4.99,6.39,6.65"/>
        <line class="cls-6" x1="540.32" y1="198.1" x2="555.56" y2="198.1"/>
      </g>
    </g>
    <g>
      <path class="cls-12" d="M61.35,40.69s.86-34.86-27.75-34.86"/>
      <path class="cls-16" d="M61.36,122.47s.85,29.66-27.76,29.66S5.84,116.94,5.84,116.94V41.02S4.98,5.84,33.6,5.84"/>
    </g>
    <g>
      <path class="cls-10" d="M128.25,58.75s-16.54-1.43-19.94,14.4"/>
      <path class="cls-10" d="M128.25,58.75s19.25-1.66,20.49,18.47"/>
      <line class="cls-7" x1="148.71" y1="125.48" x2="148.71" y2="76.68"/>
      <line class="cls-15" x1="148.71" y1="152.15" x2="148.71" y2="125.48"/>
      <path class="cls-8" d="M128.47,152.44s-21.57,1.96-21.57-27.12,21.57-27.12,21.57-27.12"/>
      <path class="cls-8" d="M127.34,98.19s19.36-1.76,21.4,22.78"/>
      <path class="cls-8" d="M127.34,152.44s19.33,1.76,21.39-22.72"/>
    </g>
    <g>
      <path class="cls-17" d="M194.47,76.91c0-9.96,8.07-18.03,18.03-18.03s18.03,8.07,18.03,18.03"/>
      <path class="cls-17" d="M230.53,76.91c0-9.96,8.07-18.03,18.03-18.03s18.03,8.07,18.03,18.03"/>
      <line class="cls-11" x1="230.47" y1="71.23" x2="230.47" y2="152.37"/>
      <line class="cls-11" x1="266.58" y1="76.91" x2="266.58" y2="152.37"/>
      <line class="cls-11" x1="194.45" y1="58.79" x2="194.45" y2="152.37"/>
    </g>
    <g>
      <line class="cls-9" x1="311.72" y1="58.85" x2="311.72" y2="185.37"/>
      <path class="cls-14" d="M332.16,58.85s21.73-1.01,21.73,23.31v46.81c0,24.32-21.73,23.31-21.73,23.31"/>
      <path class="cls-14" d="M333.45,58.85s-21.73-1.01-21.73,23.31v46.81c0,24.32,21.73,23.31,21.73,23.31"/>
    </g>
    <g>
      <line class="cls-11" x1="443.69" y1="58.79" x2="443.69" y2="130.1"/>
      <line class="cls-11" x1="399.8" y1="58.79" x2="399.8" y2="130.13"/>
      <path class="cls-17" d="M443.69,130.1c0,.08,0,.15,0,.23,0,12.17-9.83,22.04-21.95,22.04s-21.95-9.87-21.95-22.04c0-.07,0-.13,0-.2"/>
    </g>
    <path class="cls-13" d="M532.52,73.2s-9.25-16.36-25.61-14.2c0,0-18.94.86-18.07,21.57,0,0,.65,12.3,20.01,21.79,0,0,32.49,15.1,18.72,37.96,0,0-6.03,12.03-23.02,11.95,0,0-12.26.13-20.23-15.4"/>
  </g>
</svg>