<svg width="310" height="98" viewBox="0 0 310 98" fill="none" xmlns="http://www.w3.org/2000/svg">
<g clip-path="url(#clip0_22492_180)">
<path d="M24.512 42.224L33.088 39.216L37.824 31.28L43.136 34.224L37.568 43.312L24.512 47.472L8.256 40.304L2.752 23.024L8.256 5.68L24.512 -1.488L37.568 2.608L43.264 12.016L37.824 14.768L33.536 6.768L24.512 3.76L13.248 9.264L9.28 22.96L12.992 36.72L24.512 42.224ZM51.062 44.976L47.606 37.424L51.446 29.488L70.198 23.728L67.958 17.776L62.326 16.112L57.142 17.904L54.198 22.96L49.654 20.144L54.006 13.616L62.966 11.44L72.886 14.768L75.958 24.56V46H70.582V42.16L65.142 46.192L59.126 47.344L51.062 44.976ZM70.198 28.784L56.31 32.624L53.75 37.168L55.734 41.52L60.086 42.672L66.102 40.816L70.198 37.232V28.784ZM84.465 46V12.72H89.649V17.456L93.937 12.784L100.017 11.504L106.097 13.104L109.425 17.904L113.969 12.912L119.985 11.44L127.921 14.448L130.545 22.832V46H124.785V24.944L123.633 19.056L118.769 16.432L112.369 19.504L110.321 26.736V46H104.561V24.24L103.089 18.48L98.609 16.432L91.825 20.272L90.225 28.784V46H84.465ZM138.473 58.8V12.72H143.593V17.264L147.497 12.848L153.128 11.312L163.945 16.304L167.721 29.296L163.945 42.224L153.128 47.216L147.817 45.872L144.233 42.48V58.8H138.473ZM152.809 42.352L159.273 39.024L161.833 29.296L159.273 19.504L152.809 16.24L146.473 19.504L143.465 29.296L146.217 39.024L152.809 42.352ZM200.924 12.72V46H195.74V41.2L191.196 45.808L184.988 47.344L175.58 43.312L173.468 33.072V12.72H179.228V33.072L180.764 39.856L186.14 42.352L192.668 39.408L195.164 30.768V12.72H200.924ZM212.616 35.696L214.92 40.432L221 42.416L226.12 41.392L228.68 37.552L227.656 34.48L223.816 32.496L215.56 30.384L209.8 27.632L207.24 21.488L211.208 13.808L220.36 11.44L229.64 14.128L232.456 19.76L227.592 22L225.352 17.776L220.168 16.368L214.728 17.584L212.872 20.848L214.28 23.472L218.632 25.2L226.376 27.312L231.944 30.192L234.568 37.04L230.216 45.04L220.808 47.344L210.952 44.528L207.688 38L212.616 35.696Z" fill="black"/>
<path d="M63 62L64.8815 62.0986L66.7424 62.3933L68.5623 62.881L70.3213 63.5562L72 64.4115L73.5801 65.4377L75.0443 66.6234L76.3766 67.9556L77.5623 69.4199L78.5885 71L79.4438 72.6787L80.119 74.4377L80.6067 76.2576L80.9014 78.1185L81 80L80.9014 81.8815L80.6067 83.7424L80.119 85.5623L79.4438 87.3213L78.5885 89L77.5623 90.5801L76.3766 92.0443L75.0443 93.3766L73.5801 94.5623L72 95.5885L70.3213 96.4438L68.5623 97.119L66.7424 97.6067L64.8815 97.9014L63 98L61.1185 97.9014L59.2576 97.6067L57.4377 97.119L55.6787 96.4438L54 95.5885L52.4199 94.5623L50.9556 93.3766L49.6234 92.0443L48.4377 90.5801L47.4115 89L46.5562 87.3213L45.881 85.5623L45.3933 83.7424L45.0986 81.8815L45 80L45.0986 78.1185L45.3933 76.2576L45.881 74.4377L46.5562 72.6787L47.4115 71L48.4377 69.4199L49.6234 67.9556L50.9556 66.6234L52.4199 65.4377L54 64.4115L55.6787 63.5562L57.4377 62.881L59.2576 62.3933L61.1185 62.0986L63 62Z" fill="#FF9580"/>
<path d="M67.1716 78.7782L61.8076 73.4142L63.2218 72L71 79.7782L63.2218 87.5563L61.8076 86.1421L67.1716 80.7782H55V78.7782H67.1716Z" fill="black"/>
<path d="M109.52 68.46V91.5H106.96V89.228L104.976 91.468L102.16 92.236L96.752 89.74L94.864 83.276L96.752 76.812L102.16 74.284L104.816 74.956L106.64 76.62V68.46H109.52ZM102.32 76.748L99.088 78.38L97.808 83.276L99.088 88.14L102.32 89.804L105.488 88.14L106.992 83.276L105.616 78.38L102.32 76.748ZM115.498 83.916L117.162 88.364L120.49 89.708L123.274 88.78L125.002 85.932L127.274 87.308L125.066 90.764L120.33 92.172L114.666 89.772L112.554 83.18L114.666 76.588L120.33 74.22L126.09 76.684L128.01 82.764L127.978 83.948H115.498V83.916ZM115.594 81.612H124.906L123.562 78.028L120.298 76.652L117.386 77.804L115.594 81.612ZM142.866 91.5H139.986V68.46H142.866V91.5ZM147.594 90.988L145.866 87.212L147.786 83.244L157.162 80.364L156.042 77.388L153.226 76.556L150.634 77.452L149.161 79.98L146.89 78.572L149.066 75.308L153.546 74.22L158.506 75.884L160.042 80.78V91.5H157.354V89.58L154.634 91.596L151.626 92.172L147.594 90.988ZM157.162 82.892L150.218 84.812L148.938 87.084L149.93 89.26L152.106 89.836L155.114 88.908L157.162 87.116V82.892ZM182.705 91.5H179.665V71.18H171.921V68.46H190.449V71.18H182.705V91.5ZM187.424 91.34V74.86H190.016V77.74L191.904 75.084L194.656 74.22L197.184 74.988L196.384 77.548L194.464 77.004L191.328 78.508L190.304 82.508V91.5L187.424 91.34ZM200 90.988L198.272 87.212L200.192 83.244L209.568 80.364L208.448 77.388L205.632 76.556L203.04 77.452L201.568 79.98L199.296 78.572L201.472 75.308L205.952 74.22L210.912 75.884L212.448 80.78V91.5H209.76V89.58L207.04 91.596L204.032 92.172L200 90.988ZM209.568 82.892L202.624 84.812L201.344 87.084L202.336 89.26L204.512 89.836L207.52 88.908L209.568 87.116V82.892ZM216.765 91.5V74.86H219.357V77.26L221.629 74.924L224.733 74.22L229.405 76.236L230.525 81.292V91.5H227.645V81.292L226.845 77.964L224.157 76.716L220.893 78.188L219.645 82.444V91.5H216.701H216.765ZM236.339 86.348L237.491 88.716L240.531 89.708L243.091 89.196L244.371 87.276L243.859 85.74L241.939 84.748L237.811 83.692L234.931 82.316L233.651 79.244L235.635 75.404L240.211 74.22L244.851 75.564L246.259 78.38L243.827 79.5L242.707 77.388L240.115 76.684L237.395 77.292L236.467 78.924L237.171 80.236L239.347 81.1L243.219 82.156L246.003 83.596L247.315 87.02L245.139 91.02L240.435 92.172L235.507 90.764L233.875 87.5L236.339 86.348ZM252.569 72.108H251.097L250.041 70.956V69.324L251.065 68.172H252.536L253.593 69.324V70.956L252.569 72.108ZM253.273 91.5H250.393V74.86H253.273V91.5ZM263.792 89.516C264.218 89.516 264.656 89.484 265.104 89.42C265.552 89.3347 265.914 89.2493 266.192 89.164V91.308C265.893 91.4573 265.466 91.5747 264.912 91.66C264.357 91.7667 263.824 91.82 263.312 91.82C262.416 91.82 261.584 91.6707 260.816 91.372C260.069 91.052 259.461 90.508 258.992 89.74C258.522 88.972 258.288 87.8947 258.288 86.508V76.524H255.856V75.18L258.32 74.06L259.44 70.412H261.104V74.348H266.064V76.524H261.104V86.444C261.104 87.4893 261.349 88.268 261.84 88.78C262.352 89.2707 263.002 89.516 263.792 89.516ZM271.162 72.108H269.69L268.634 70.956V69.324L269.658 68.172H271.13L272.186 69.324V70.956L271.162 72.108ZM271.866 91.5H268.986V74.86H271.866V91.5ZM282.802 74.22L288.562 76.588L290.738 83.18L288.562 89.772L282.802 92.172L277.074 89.804L274.898 83.18L277.074 76.588L282.802 74.22ZM282.802 89.74L286.29 88.204L287.826 83.212L286.29 78.188L282.802 76.684L279.346 78.188L277.81 83.212L279.346 88.204L282.802 89.74ZM293.703 91.5V74.86H296.295V77.26L298.567 74.924L301.671 74.22L306.343 76.236L307.463 81.292V91.5H304.583V81.292L303.783 77.964L301.095 76.716L297.831 78.188L296.583 82.444V91.5H293.639H293.703Z" fill="black"/>
</g>
<defs>
<clipPath id="clip0_22492_180">
<rect width="310" height="98" fill="white"/>
</clipPath>
</defs>
</svg>
