<svg width="107" height="34" viewBox="0 0 107 34" fill="none" xmlns="http://www.w3.org/2000/svg">
<path d="M73.078 13.0137L73.8803 14.6712L75.9975 15.3656L77.7803 15.0072L78.6717 13.6633L78.3152 12.5881L76.978 11.8938L74.1032 11.1546L72.0974 10.1914L71.206 8.04117L72.5877 5.35331L75.7746 4.52456L79.006 5.46531L79.9866 7.4364L78.2929 8.22036L77.5129 6.74204L75.7077 6.24926L73.8134 6.67484L73.1671 7.81718L73.6574 8.73553L75.1729 9.34029L77.8695 10.0795L79.8083 11.0874L80.722 13.4841L79.2066 16.2839L75.9306 17.0903L72.4986 16.1047L71.362 13.8201L73.078 13.0137Z" fill="black"/>
<path d="M69.0067 4.97253V16.6199H67.2015V14.94L65.6192 16.5527L63.4575 17.0903L60.1815 15.6791L59.446 12.0953V4.97253H61.4518V12.0953L61.9866 14.4696L63.8586 15.3432L66.1318 14.3128L67.0009 11.289V4.97253H69.0067Z" fill="black"/>
<path d="M47.2602 21.0997V4.97253H49.0431V6.56285L50.4025 5.01733L52.3637 4.47976L56.13 6.22686L57.4448 10.7738L56.13 15.2984L52.3637 17.0455L50.514 16.5751L49.2659 15.388V21.0997H47.2602ZM52.2523 15.3432L54.5031 14.1784L55.3946 10.7738L54.5031 7.3468L52.2523 6.20447L50.046 7.3468L48.9985 10.7738L49.9568 14.1784L52.2523 15.3432Z" fill="black"/>
<path d="M28.4538 16.6199V4.97253H30.2589V6.63004L31.7521 4.99493L33.8692 4.54696L35.9864 5.10693L37.1452 6.78683L38.7275 5.03973L40.8224 4.52456L43.5859 5.5773L44.4996 8.51154V16.6199H42.4939V9.2507L42.0927 7.19001L40.399 6.27166L38.1704 7.3468L37.4572 9.87786V16.6199H35.4515V9.00431L34.9389 6.98842L33.3789 6.27166L31.0166 7.61559L30.4595 10.5946V16.6199H28.4538Z" fill="black"/>
<path d="M16.8223 16.2615L15.6189 13.6185L16.956 10.841L23.4858 8.82512L22.7058 6.74204L20.7446 6.15967L18.9395 6.78683L17.9143 8.55634L16.332 7.57079L17.8475 5.28612L20.9675 4.52456L24.4218 5.68929L25.4915 9.11631V16.6199H23.6195V15.276L21.7252 16.6871L19.6303 17.0903L16.8223 16.2615ZM23.4858 10.5946L18.6498 11.9386L17.7583 13.5289L18.4492 15.052L19.9646 15.4552L22.0595 14.8056L23.4858 13.5513V10.5946Z" fill="black"/>
<path d="M7.57718 15.2984L10.5635 14.2456L12.2126 11.4682L14.0624 12.4985L12.1235 15.6791L7.57718 17.1351L1.91658 14.6264L0 8.57874L1.91658 2.50866L7.57718 0L12.1235 1.43352L14.1069 4.72615L12.2126 5.68929L10.7195 2.88944L7.57718 1.8367L3.65487 3.763L2.27315 8.55634L3.56573 13.3721L7.57718 15.2984Z" fill="black"/>
<path d="M26.2026 22.2196H15.0596V33.419H26.2026V22.2196Z" fill="#FF9580"/>
<path d="M22.0837 27.4693L20.2159 25.592L20.7083 25.097L23.4168 27.8193L20.7083 30.5414L20.2159 30.0465L22.0837 28.1692H17.8454V27.4693H22.0837Z" fill="black"/>
<path d="M101.314 32.0191V26.1954H102.216V27.0353L103.008 26.2178L104.088 25.9714L105.715 26.6769L106.105 28.4465V32.0191H105.102V28.4465L104.824 27.2817L103.888 26.8449L102.751 27.3601L102.317 28.8496V32.0191H101.292H101.314Z" fill="black"/>
<path d="M97.5179 25.9714L99.5236 26.8001L100.281 29.1072L99.5236 31.4143L97.5179 32.2542L95.5233 31.4255L94.7656 29.1072L95.5233 26.8001L97.5179 25.9714ZM97.5179 31.4031L98.7325 30.8655L99.2673 29.1184L98.7325 27.3601L97.5179 26.8337L96.3145 27.3601L95.7796 29.1184L96.3145 30.8655L97.5179 31.4031Z" fill="black"/>
<path d="M93.4647 25.2322H92.9521L92.5844 24.829V24.2579L92.9409 23.8547H93.4535L93.8212 24.2579V24.829L93.4647 25.2322ZM93.7098 32.0191H92.7069V26.1954H93.7098V32.0191Z" fill="black"/>
<path d="M90.8983 31.3247C91.0466 31.3247 91.1992 31.3135 91.3552 31.2911C91.5112 31.2612 91.6372 31.2314 91.734 31.2015V31.9519C91.6299 32.0041 91.4812 32.0452 91.2883 32.0751C91.0951 32.1124 90.9095 32.1311 90.7312 32.1311C90.4192 32.1311 90.1295 32.0788 89.862 31.9743C89.6019 31.8623 89.3902 31.6719 89.2269 31.4031C89.0632 31.1343 88.9817 30.7573 88.9817 30.272V26.7777H88.1349V26.3074L88.9929 25.9154L89.3829 24.6387H89.9623V26.0162H91.6895V26.7777H89.9623V30.2496C89.9623 30.6154 90.0476 30.8879 90.2186 31.0671C90.3969 31.2388 90.6232 31.3247 90.8983 31.3247Z" fill="black"/>
<path d="M86.9903 25.2322H86.4777L86.11 24.829V24.2579L86.4666 23.8547H86.9791L87.3469 24.2579V24.829L86.9903 25.2322ZM87.2354 32.0191H86.2326V26.1954H87.2354V32.0191Z" fill="black"/>
<path d="M81.3387 30.216L81.7399 31.0447L82.7985 31.3919L83.6899 31.2127L84.1356 30.5407L83.9573 30.0032L83.2887 29.656L81.8513 29.2864L80.8484 28.8048L80.4027 27.7297L81.0936 26.3858L82.687 25.9714L84.3027 26.4418L84.793 27.4273L83.9462 27.8193L83.5562 27.0801L82.6536 26.8337L81.7065 27.0465L81.3833 27.6177L81.6285 28.0769L82.3862 28.3793L83.7345 28.7488L84.7039 29.2528L85.1608 30.4511L84.403 31.8511L82.765 32.2542L81.049 31.7615L80.4807 30.6191L81.3387 30.216Z" fill="black"/>
<path d="M74.5228 32.0191V26.1954H75.4253V27.0353L76.2165 26.2178L77.2973 25.9714L78.9242 26.6769L79.3142 28.4465V32.0191H78.3113V28.4465L78.0328 27.2817L77.0968 26.8449L75.9602 27.3601L75.5256 28.8496V32.0191H74.5005H74.5228Z" fill="black"/>
<path d="M68.6849 31.8399L68.0832 30.5183L68.7518 29.1296L72.0166 28.1217L71.6266 27.0801L70.6461 26.7889L69.7435 27.1025L69.2309 27.9873L68.4398 27.4945L69.1975 26.3522L70.7575 25.9714L72.4846 26.5538L73.0195 28.2673V32.0191H72.0835V31.3471L71.1364 32.0527L70.0889 32.2542L68.6849 31.8399ZM72.0166 29.0064L69.5986 29.6784L69.1529 30.4735L69.4983 31.2351L70.2561 31.4367L71.3035 31.1119L72.0166 30.4847V29.0064Z" fill="black"/>
<path d="M64.3057 31.9631V26.1954H65.2083V27.2033L65.8658 26.2738L66.8241 25.9714L67.7043 26.2402L67.4258 27.1361L66.7572 26.9457L65.6652 27.4721L65.3086 28.872V32.0191L64.3057 31.9631Z" fill="black"/>
<path d="M62.6625 32.0191H61.6039V24.9074H58.9074V23.9555H65.3591V24.9074H62.6625V32.0191Z" fill="black"/>
<path d="M50.4363 31.8399L49.8346 30.5183L50.5032 29.1296L53.768 28.1217L53.378 27.0801L52.3975 26.7889L51.4949 27.1025L50.9823 27.9873L50.1912 27.4945L50.9489 26.3522L52.5089 25.9714L54.236 26.5538L54.7709 28.2673V32.0191H53.8349V31.3471L52.8877 32.0527L51.8403 32.2542L50.4363 31.8399ZM53.768 29.0064L51.35 29.6784L50.9043 30.4735L51.2497 31.2351L52.0075 31.4367L53.0549 31.1119L53.768 30.4847V29.0064Z" fill="black"/>
<path d="M48.7899 32.0191H47.7871V23.9555H48.7899V32.0191Z" fill="black"/>
<path d="M39.26 29.3648L39.8394 30.9215L40.9983 31.3919L41.9677 31.0671L42.5694 30.0704L43.3606 30.5519L42.5917 31.7615L40.9425 32.2542L38.9702 31.4143L38.2348 29.1072L38.9702 26.8001L40.9425 25.9714L42.9483 26.8337L43.6168 28.9616L43.6057 29.376H39.26V29.3648ZM39.2934 28.5584H42.536L42.068 27.3041L40.9314 26.8225L39.9174 27.2257L39.2934 28.5584Z" fill="black"/>
<path d="M37.1783 23.9555V32.0191H36.2869V31.2239L35.596 32.0079L34.6155 32.2766L32.7323 31.4031L32.0749 29.1408L32.7323 26.8785L34.6155 25.9938L35.5403 26.229L36.1755 26.8113V23.9555H37.1783ZM34.6712 26.8561L33.5457 27.4273L33.1 29.1408L33.5457 30.8431L34.6712 31.4255L35.7743 30.8431L36.298 29.1408L35.8189 27.4273L34.6712 26.8561Z" fill="black"/>
</svg>
